# xmcd
#
# Track frame offsets: 
#        150
#        12999
#        29985
#        42910
#        60116
#        75077
#        87210
#        107815
#        120712
#        137266
#        152965
#        165470
#        179938
#        203003
#        219814
#        232100
#        249318
#        264474
#        282063
#        298216
#        311868
#
# Disc length: 4573 seconds
#
# Revision: 0
# Processed by: cddbd v1.5.2PL0 Copyright (c) Steve Scherf et al.
# Submitted via: ExactAudioCopy v0.99pb5
#
DISCID=2411db15
DTITLE=João Marcio and Fabiano - Ao vivo
DYEAR=1900
DGENRE=Country
TTITLE0=Deixa o Pau Torar
TTITLE1=Machuca Eu
TTITLE2=Casa das Pimas
TTITLE3=Batidão
TTITLE4=Se Ainda Tem Amor
TTITLE5=Preciso Desse Amor
TTITLE6=Quero Falar de Amor
TTITLE7=Pistoleira
TTITLE8=Me Perdi, Me Encontrei
TTITLE9=Galera do Chapéu
TTITLE10=Amor de Pin...ga
TTITLE11=Sapato
TTITLE12=Desejo de Amar, Quem Será Essa Mulher, Depois que Você Matar 
TTITLE12=Meu Coração
TTITLE13=Amor de Violeiro
TTITLE14=Catira
TTITLE15=Sai Dessa Vida
TTITLE16=É Serio
TTITLE17=Ira
TTITLE18=Sempre Te Amei
TTITLE19=Reganheira
TTITLE20=Com muito louvor
EXTD=
EXTT0=
EXTT1=
EXTT2=
EXTT3=
EXTT4=
EXTT5=
EXTT6=
EXTT7=
EXTT8=
EXTT9=
EXTT10=
EXTT11=
EXTT12=
EXTT13=
EXTT14=
EXTT15=
EXTT16=
EXTT17=
EXTT18=
EXTT19=
EXTT20=
PLAYORDER=
